<?xml version="1.0" encoding="UTF-8"?>
<svg width="1024px" height="1024px" viewBox="0 0 1024 1024" version="1.1" xmlns="http://www.w3.org/2000/svg" xmlns:xlink="http://www.w3.org/1999/xlink" style="background: #000000;">
    <!-- Generator: Sketch 48.2 (47327) - http://www.bohemiancoding.com/sketch -->
    <title>Artboard</title>
    <desc>Created with Sketch.</desc>
    <defs></defs>
    <g id="Page-1" stroke="none" stroke-width="1" fill="none" fill-rule="evenodd">
        <g id="Artboard" fill-rule="nonzero">
            <g id="Group" transform="translate(515.000000, 421.000000) scale(-1, 1) rotate(-180.000000) translate(-515.000000, -421.000000) translate(88.000000, 255.000000)">
                <polygon id="Shape" fill="#EE3439" points="746 316 746 300.9 751.3 301.2 756.5 301.5 756.5 316 756.5 330.5 751.3 330.8 746 331.1"></polygon>
                <polygon id="Shape" fill="#EE3439" points="766 289 766 268 771 268 776 268 776 289 776 310 771 310 766 310"></polygon>
                <polygon id="Shape" fill="#EE3439" points="785 239.5 785 194 790 194 795 194 795 239.5 795 285 790 285 785 285"></polygon>
                <polygon id="Shape" fill="#EE3439" points="804 218 804 173 809.5 173 815 173 815 218 815 263 809.5 263 804 263"></polygon>
                <polygon id="Shape" fill="#EE3439" points="766 234.5 766 216 771 216 776 216 776 234.5 776 253 771 253 766 253"></polygon>
                <polygon id="Shape" fill="#EE3439" points="823 185.5 823 136 828.5 136 834 136 834 185.5 834 235 828.5 235 823 235"></polygon>
                <polygon id="Shape" fill="#EE3439" points="746 201.4 746 182.9 751.3 183.2 756.5 183.5 756.8 201.8 757 220 751.5 220 746 220"></polygon>
                <path d="M727,177.4 L727,155.9 L732.3,156.2 C735.1,156.4 737.4,156.8 737.3,157.3 C737.1,157.7 737,167.2 737,178.5 L737,199 L732,199 L727,199 L727,177.4 Z" id="Shape" fill="#EE3439"></path>
                <polygon id="Shape" fill="#EE3439" points="843 177.5 843 156 848.5 156 854 156 854 177.5 854 199 848.5 199 843 199"></polygon>
                <polygon id="Shape" fill="#EE3439" points="707 140.9 707 105.9 712.3 106.2 717.5 106.5 717.8 141.3 718 176 712.5 176 707 176"></polygon>
                <polygon id="Shape" fill="#EE3439" points="804 135.5 804 113 809.5 113 815 113 815 135.5 815 158 809.5 158 804 158"></polygon>
                <path d="M0,73.5 L0,0 L19.5,0 L39,0 L39.2,49.2 L39.5,98.4 L65.4,52 C79.7,26.4 92.2,4.3 93.2,2.8 L95.1,0 L122.1,0 L149,0 L149,73.5 L149,147 L129,147 L109,147 L109.2,98 C109.4,71.1 109.2,49.4 108.8,49.8 C108.5,50.2 106.7,53.2 104.8,56.6 C103,59.9 91.2,81.6 78.5,104.8 L55.5,146.9 L27.8,147 L0,147 L0,73.5 Z" id="Shape" fill="#FFFFFF"></path>
                <polygon id="Shape" fill="#FFFFFF" points="178 73.5 178 0 236.3 0.2 294.5 0.5 294.8 14.3 295.1 28 258.5 28 222 28 222 44 222 60 255.3 60.2 288.5 60.5 288.8 74.8 289.1 89 255.5 89 222 89 222 104 222 119 257 119 292 119 292 133 292 147 235 147 178 147"></polygon>
                <polygon id="Shape" fill="#FFFFFF" points="313 73.5 313 0 334.8 0.2 356.5 0.5 357 30.5 357.5 60.5 388 60.5 418.5 60.5 418.8 74.8 419.1 89 388 89 357 89 357 104 357 119 389 119 421 119 421 133 421 147 367 147 313 147"></polygon>
                <polygon id="Shape" fill="#FFFFFF" points="440 73.5 440 0 462 0 484 0 484 73.5 484 147 462 147 440 147"></polygon>
                <polygon id="Shape" fill="#FFFFFF" points="503 132 503 117 523 117 543 117 543 58.5 543 0 564.8 0.2 586.5 0.5 586.8 58.8 587 117 606.5 117 626 117 626 132 626 147 564.5 147 503 147"></polygon>
                <polygon id="Shape" fill="#FFFFFF" points="668.2 73.8 668.5 0.5 742.3 0.2 816 0 815.8 52.7 815.5 105.5 811.5 105.5 807.5 105.5 807.2 56.3 807 7 741.5 7 676 7 676 73 676 139 687 139 698 139 698 143 698 147 683 147 668 147"></polygon>
                <polygon id="Shape" fill="#EE3439" points="727 143 727 139 761.8 139.2 796.5 139.5 796.8 143.3 797.1 147 762.1 147 727 147"></polygon>
                <polygon id="Shape" fill="#EE3439" points="785 104.5 785 86 790 86 795 86 795 104.5 795 123 790 123 785 123"></polygon>
                <polygon id="Shape" fill="#EE3439" points="727 99.4 727 76.9 732 77.2 737.1 77.5 737.3 99.8 737.5 122 732.3 122 727 122"></polygon>
                <polygon id="Shape" fill="#EE3439" points="765 78.5 765 46 770.5 46 776 46 776 78.5 776 111 770.5 111 765 111"></polygon>
                <polygon id="Shape" fill="#EE3439" points="746 80 746 64.9 751.3 65.2 756.5 65.5 756.5 80 756.5 94.5 751.3 94.8 746 95.1"></polygon>
            </g>
        </g>
    </g>
</svg>